[color=green]Movies : Animation : HD1080p :Arabic[/color]

 


[img]http://img528.imageshack.us/img528/4756/theju.jpg[/img]





[img]http://img219.imageshack.us/img219/462/imdbt.png[/img]
[color=red]IMDB:[/color] 
http://www.imdb.com/title/tt1430626/
[color=green]Genre:[/color]Animation | Adventure | Comedy
[color='ff0000']Source:[/color]Blu-ray Disc 
[color=red]Language:[/color]Arabic
File size  : 4.32 GiB
Duration : 01:28:05
[color=green]Encoder:[/color]alrmothe

[img]http://i.imgur.com/fXeWi.png[/img]
[img]http://img251.imageshack.us/img251/2539/general3y.png[/img]
[color=red]Video Information[/color]
Format :Matroska
Format : AVC
Format profile : High@L4.0
Video Bit rate : 6374 Kbps
Frame Rate: 23.976 fps
Bit depth : 8 bits
Scan type : Progressive
Bits/(Pixel*Frame): 0.170
Stream size : 3.84 GiB (89%)
[color=green]Resolution:1920x816[/color]


[color=navy]Audio Information:[/color]
Format : AC-3
Bit rate mode : Constant
Bit rate : 640 Kbps
Channel(s) : 6 channels
Channel positions:Front: L C R, Side:L R,LFE
Sampling rate : 48.0 KHz
Bit depth : 16 bits
Compression mode : Lossy
Stream size : 403 MiB (9%)


[color=red]Screenshots[/color]
 
http://img685.imageshack.us/img685/6899/98877895.png
 
http://img171.imageshack.us/img171/4057/36879474.png
 
http://img546.imageshack.us/img546/4069/25654342.png
 
http://img513.imageshack.us/img513/2221/52479733.png
 
http://img88.imageshack.us/img88/3858/80732833.png

 
http://img819.imageshack.us/img819/1939/thepiratesbandofmisfitse.png



















trailer







.